<?xml version="1.0" encoding="utf-8"?>
<!-- Generator: Adobe Illustrator 24.0.0, SVG Export Plug-In . SVG Version: 6.00 Build 0)  -->
<svg version="1.1" id="Layer_1" xmlns="http://www.w3.org/2000/svg" xmlns:xlink="http://www.w3.org/1999/xlink" x="0px" y="0px"
	 viewBox="0 0 348.5 179" style="enable-background:new 0 0 348.5 179;" xml:space="preserve">
<style type="text/css">
	.st0{display:none;}
	.st1{display:inline;fill:#FFFFFF;}
	.st2{display:inline;}
	.st3{fill:#EF5B24;}
	.st4{fill:url(#SVGID_1_);}
	.st5{fill:url(#SVGID_2_);}
	.st6{fill:url(#SVGID_3_);}
	.st7{fill:#444444;}
	.st8{display:inline;fill:url(#SVGID_4_);}
	.st9{fill:#FFFFFF;}
	.st10{fill:url(#SVGID_5_);}
	.st11{fill:url(#SVGID_6_);}
	.st12{fill:url(#SVGID_7_);}
	.st13{display:none;fill:#EF5B24;}
</style>
<g class="st0">
	
		<image style="display:inline;overflow:visible;" width="1189" height="1549" xlink:href="EF0BEA39.jpg"  transform="matrix(1.0026 0 0 1.0026 604.9045 -201.3079)">
	</image>
	<rect x="604.9" y="-195.7" class="st1" width="1192.1" height="1547.3"/>
	<rect x="614.4" y="-189.7" class="st1" width="1168.3" height="77.1"/>
	<g class="st2">
		<path class="st3" d="M779.8-162.4c0,0.2-0.1,0.3-0.1,0.5c-0.2,0.9-0.7,1.4-1.6,1.6c-0.4,0.1-0.8,0.1-1.2,0.1
			c-10.3,0-20.6,0-30.9,0c-3,0-5.9,0-8.9,0c-3.9,0-7.9,0-11.8,0c-3.6,0-7.2,0-10.8,0c-2.5,0-5.1,0-7.6,0c-4,0-8,0-12,0
			c-1.3,0-2.5-0.4-3.6-1.1c-5.5-3.5-11-7-16.5-10.5c-1.6-1-3.2-2.1-4.8-3.2c-0.5-0.3-1-0.6-1.7-0.7c-0.8-0.1-1.4,0.1-2.1,0.5
			c-1.5,0.8-3,1.6-4.5,2.6c-3.2,2-6.4,4.1-9.6,6.1c-2.6,1.6-5.2,3.3-7.7,4.9c-0.6,0.4-1.1,0.7-1.6,1.2c-0.8,0.7-1.2,1.6-1.2,2.7
			c0,1.8,0,3.6,0,5.4c0,4.2,0,8.3,0,12.5c0,2,0,4,0,6c0,0.5,0,1,0,1.5c0,0.2,0,0.4,0.1,0.6c0.2,0.9,0.7,1.4,1.6,1.4
			c0.5,0,1.1,0,1.6,0c1.5,0,2.9,0,4.4,0c0.9,0,1.7-0.1,2.6-0.1c0.1,0,0.1,0,0.2,0c0-1.4,0-2.7,0-4.1c10.2,0,20.5,0,30.7,0
			c0,3.1,0,6.2,0,9.3c-0.1,0-0.2,0-0.3,0c-13.3,0-26.6,0-39.9,0c-1.2,0-2.5-0.1-3.7-0.5c-1.8-0.6-3-1.8-3.4-3.7
			c-0.3-1.1-0.4-2.2-0.4-3.4c0-2.5,0-4.9,0-7.4c0-3.8,0-7.7,0-11.5c0-1.8-0.1-3.6-0.1-5.4c0-1.1-0.1-2.3,0.2-3.4
			c0.4-1.7,1.3-3.1,2.7-4.3c1-0.9,2.2-1.5,3.4-2.3c6-3.8,12.1-7.5,18.1-11.3c2.8-1.7,5.5-3.5,8.2-5.3c0.4-0.2,0.7-0.2,1,0
			c3.8,2.6,7.6,5.2,11.4,7.7c3.5,2.3,7.1,4.6,10.7,7c0.9,0.6,1.7,1.2,2.6,1.7c1.6,1,3.3,1.4,5.1,1.4c4.5,0,9.1,0,13.6,0
			c5.1,0,10.3,0,15.4,0c11.1,0,22.2,0,33.4,0c5.1,0,10.2,0,15.3,0c0.5,0,1,0,1.5,0c1.3,0.1,2,0.8,2,2.1c0,0.1,0,0.2,0.1,0.4
			C779.8-163,779.8-162.7,779.8-162.4z"/>
		<path class="st3" d="M652.2-145.8c10.2-0.1,20.4-0.1,30.7,0c0,3.1,0,6.2,0,9.3c-10.2,0-20.4,0-30.7,0
			C652.2-139.6,652.2-142.7,652.2-145.8z"/>
		<path class="st3" d="M652.2-148c0-0.1,0-0.1,0-0.2c0-2.5,0-5,0-7.4c0-1.1,0.9-1.7,1.7-1.7c9.1,0,18.2,0,27.3,0
			c0.9,0,1.7,0.6,1.7,1.7c0,2.5,0,4.9,0,7.4c0,0.1,0,0.1,0,0.2C672.7-148,662.5-148,652.2-148z"/>
		<g>
			<linearGradient id="SVGID_1_" gradientUnits="userSpaceOnUse" x1="702.8763" y1="-156.3736" x2="705.3313" y2="-124.4592">
				<stop  offset="0" style="stop-color:#2DB4F0"/>
				<stop  offset="1" style="stop-color:#069FFA"/>
			</linearGradient>
			<path class="st4" d="M694.1-125.2v-30.5h20v4.6h-13.9v8.1h12.3v4.4h-12.3v8.7h14.1v4.6H694.1z"/>
			<linearGradient id="SVGID_2_" gradientUnits="userSpaceOnUse" x1="732.0793" y1="-156.1875" x2="734.5363" y2="-124.2462">
				<stop  offset="0" style="stop-color:#2DB4F0"/>
				<stop  offset="1" style="stop-color:#069FFA"/>
			</linearGradient>
			<path class="st5" d="M739.5-125.8c-0.6,0.3-1.3,0.6-2.3,0.8s-2.3,0.3-4,0.3c-1.7,0-3.3-0.2-4.9-0.5c-3-0.7-5.1-1.9-6.2-3.6
				c-1.2-1.7-1.7-3.9-1.7-6.4v-10.2c0-4.2,1.3-7.1,4-8.8c2.2-1.4,5.3-2,9.5-2c6.7,0,10.7,1.9,11.9,5.6c0.4,1.3,0.6,2.8,0.6,4.6v0.5
				l-6,0.5v-1.2c0-2-0.5-3.3-1.4-4c-1-0.7-2.7-1.1-5.1-1.1c-2.4,0-4.2,0.4-5.5,1.2c-1.2,0.8-1.8,2.2-1.8,4.1v11.5
				c0,2,0.6,3.4,1.9,4.1c1.3,0.7,3.1,1,5.5,1c2.4,0,4.1-0.3,5.3-1c1.1-0.7,1.7-2,1.7-4.1v-2.2h-6.2v-4h11.7v15.7h-3.2l-1-3.5
				c-0.2,0.6-0.5,1.2-1,1.7C740.6-126.5,740-126.1,739.5-125.8z"/>
			<linearGradient id="SVGID_3_" gradientUnits="userSpaceOnUse" x1="764.7667" y1="-156.5162" x2="767.1859" y2="-125.0662">
				<stop  offset="0" style="stop-color:#2DB4F0"/>
				<stop  offset="1" style="stop-color:#069FFA"/>
			</linearGradient>
			<path class="st6" d="M754.1-125.2v-30.5h13.2c4.9,0,8.2,1.4,9.9,4.3c0.9,1.6,1.4,3.7,1.4,6.3v9.4c0,5.2-2,8.4-5.9,9.7
				c-1.5,0.5-3.3,0.8-5.4,0.8H754.1z M760.3-129.9h6.6c2.1,0,3.6-0.4,4.4-1.2c0.8-0.8,1.2-2,1.2-3.8v-11c0-1.7-0.4-3-1.3-3.8
				c-0.8-0.8-2.3-1.2-4.4-1.2h-6.6V-129.9z"/>
		</g>
		<g>
			<path class="st7" d="M642.6-121.7h-5c0,0-0.1,0-0.1,0.1v4.8c0,0,0,0.1,0.1,0.1h3.5c0.1,0,0.2,0.1,0.2,0.2v0.5
				c0,0.1-0.1,0.2-0.2,0.2h-3.5c0,0-0.1,0-0.1,0.1v4.8c0,0,0,0.1,0.1,0.1h5c0.1,0,0.2,0.1,0.2,0.2v0.5c0,0.1-0.1,0.2-0.2,0.2h-5.8
				c-0.1,0-0.2-0.1-0.2-0.2v-12c0-0.1,0.1-0.2,0.2-0.2h5.8c0.1,0,0.2,0.1,0.2,0.2v0.5C642.7-121.7,642.7-121.7,642.6-121.7z"/>
			<path class="st7" d="M644.4-110.2c0,0,0-0.1,0-0.2l2.4-4.2c0,0,0-0.1,0-0.1l-2.4-4.2c0,0,0-0.1,0-0.1c0-0.1,0-0.1,0.1-0.1h0.6
				c0.1,0,0.1,0,0.2,0.1l2,3.5c0,0,0,0,0,0c0,0,0,0,0,0l1.9-3.5c0.1-0.1,0.1-0.1,0.2-0.1h0.6c0.1,0,0.1,0,0.1,0.1c0,0,0,0.1,0,0.2
				l-2.4,4.2c0,0,0,0.1,0,0.1l2.4,4.2c0,0,0,0.1,0,0.1c0,0.1,0,0.1-0.1,0.1h-0.6c-0.1,0-0.1,0-0.2-0.1l-1.9-3.5c0,0,0,0,0,0
				c0,0,0,0,0,0l-2,3.5c-0.1,0.1-0.1,0.1-0.2,0.1h-0.6C644.4-110.1,644.4-110.1,644.4-110.2z"/>
			<path class="st7" d="M652.8-110.7c-0.5-0.5-0.8-1.1-0.9-1.8c-0.1-0.6-0.1-1.3-0.1-2.1c0-0.7,0-1.4,0.1-2.1
				c0.1-0.7,0.4-1.3,0.9-1.8c0.5-0.5,1.1-0.7,1.9-0.7c0.7,0,1.4,0.2,1.9,0.7c0.5,0.4,0.8,1,0.9,1.6l0,0.3v0c0,0.1,0,0.1-0.1,0.2
				l-0.5,0c-0.1,0-0.2-0.1-0.2-0.2v-0.1c0,0,0-0.1,0-0.2c-0.1-0.4-0.3-0.8-0.6-1.1c-0.4-0.3-0.8-0.5-1.3-0.5c-0.5,0-1,0.2-1.3,0.5
				c-0.3,0.3-0.5,0.8-0.6,1.4c-0.1,0.6-0.1,1.2-0.1,1.9c0,0.7,0,1.4,0.1,1.9c0.1,0.6,0.3,1,0.6,1.4c0.3,0.3,0.8,0.5,1.3,0.5
				c0.5,0,1-0.2,1.3-0.5c0.4-0.3,0.6-0.7,0.6-1.2v-0.1c0-0.1,0.1-0.2,0.2-0.2l0.5,0c0,0,0.1,0,0.1,0c0,0,0,0.1,0,0.1v0.1l0,0.1
				c0,0,0,0,0,0.1c-0.1,0.7-0.4,1.2-0.9,1.6c-0.5,0.4-1.1,0.6-1.9,0.6C653.9-110,653.3-110.2,652.8-110.7z"/>
			<path class="st7" d="M663.6-111.2c0.3-0.3,0.6-0.6,0.7-1c0-0.1,0.1-0.1,0.2-0.1l0.4,0.1c0.1,0,0.1,0,0.1,0.1c0,0,0,0.1,0,0.1
				c-0.2,0.6-0.5,1.1-0.9,1.5c-0.5,0.4-1.1,0.6-1.7,0.6c-0.7,0-1.4-0.2-1.9-0.7c-0.5-0.4-0.8-1-0.9-1.8c-0.1-0.5-0.1-1.2-0.1-2.2
				s0-1.6,0.1-2c0.1-0.8,0.4-1.4,0.9-1.8c0.5-0.5,1.1-0.7,1.9-0.7c0.8,0,1.5,0.2,2,0.7c0.5,0.5,0.8,1.1,0.9,2c0,0.4,0,1.1,0,2
				c0,0.1-0.1,0.2-0.2,0.2h-4.6c0,0-0.1,0-0.1,0.1c0,0.6,0,1.1,0,1.5c0.1,0.6,0.3,1,0.6,1.4c0.4,0.3,0.8,0.5,1.4,0.5
				C662.9-110.8,663.3-110.9,663.6-111.2z M661.1-117.8c-0.3,0.3-0.5,0.8-0.6,1.3c0,0.3,0,0.7-0.1,1.4c0,0,0,0.1,0.1,0.1h3.8
				c0,0,0.1,0,0.1-0.1c0-0.5,0-1,0-1.3c-0.1-0.6-0.3-1-0.6-1.4c-0.4-0.3-0.8-0.5-1.3-0.5C661.9-118.3,661.4-118.2,661.1-117.8z"/>
			<path class="st7" d="M667.7-110.3v-12c0-0.1,0.1-0.2,0.2-0.2h0.5c0.1,0,0.2,0.1,0.2,0.2v12c0,0.1-0.1,0.2-0.2,0.2h-0.5
				C667.8-110.1,667.7-110.2,667.7-110.3z"/>
			<path class="st7" d="M671.3-110.3v-12c0-0.1,0.1-0.2,0.2-0.2h0.5c0.1,0,0.2,0.1,0.2,0.2v12c0,0.1-0.1,0.2-0.2,0.2h-0.5
				C671.4-110.1,671.3-110.2,671.3-110.3z"/>
			<path class="st7" d="M678.8-111.2c0.3-0.3,0.6-0.6,0.7-1c0-0.1,0.1-0.1,0.2-0.1l0.4,0.1c0.1,0,0.1,0,0.1,0.1c0,0,0,0.1,0,0.1
				c-0.2,0.6-0.5,1.1-0.9,1.5c-0.5,0.4-1.1,0.6-1.7,0.6c-0.7,0-1.4-0.2-1.9-0.7c-0.5-0.4-0.8-1-0.9-1.8c-0.1-0.5-0.1-1.2-0.1-2.2
				s0-1.6,0.1-2c0.1-0.8,0.4-1.4,0.9-1.8c0.5-0.5,1.1-0.7,1.9-0.7c0.8,0,1.5,0.2,2,0.7c0.5,0.5,0.8,1.1,0.9,2c0,0.4,0,1.1,0,2
				c0,0.1-0.1,0.2-0.2,0.2h-4.6c0,0-0.1,0-0.1,0.1c0,0.6,0,1.1,0,1.5c0.1,0.6,0.3,1,0.6,1.4c0.4,0.3,0.8,0.5,1.4,0.5
				C678.1-110.8,678.5-110.9,678.8-111.2z M676.2-117.8c-0.3,0.3-0.5,0.8-0.6,1.3c0,0.3,0,0.7-0.1,1.4c0,0,0,0.1,0.1,0.1h3.8
				c0,0,0.1,0,0.1-0.1c0-0.5,0-1,0-1.3c-0.1-0.6-0.3-1-0.6-1.4c-0.4-0.3-0.8-0.5-1.3-0.5C677-118.3,676.6-118.2,676.2-117.8z"/>
			<path class="st7" d="M687.7-118.4c0.4,0.5,0.7,1.2,0.7,2.1v6c0,0.1-0.1,0.2-0.2,0.2h-0.5c-0.1,0-0.2-0.1-0.2-0.2v-5.8
				c0-0.7-0.2-1.2-0.5-1.6c-0.3-0.4-0.8-0.6-1.3-0.6c-0.5,0-0.9,0.2-1.3,0.5c-0.3,0.3-0.5,0.8-0.6,1.4v6.1c0,0.1-0.1,0.2-0.2,0.2
				h-0.5c-0.1,0-0.2-0.1-0.2-0.2v-8.6c0-0.1,0.1-0.2,0.2-0.2h0.5c0.1,0,0.2,0.1,0.2,0.2v0.8c0,0,0,0.1,0,0.1c0,0,0,0,0,0
				c0.2-0.4,0.5-0.6,0.9-0.8c0.4-0.2,0.7-0.3,1.2-0.3C686.6-119.1,687.2-118.9,687.7-118.4z"/>
			<path class="st7" d="M694-118.3h-1.6c0,0-0.1,0-0.1,0.1v5.7c0,0.6,0.1,1,0.3,1.3c0.2,0.2,0.6,0.3,1.1,0.3h0.3
				c0.1,0,0.2,0.1,0.2,0.2v0.5c0,0.1-0.1,0.2-0.2,0.2h-0.4c-0.7,0-1.2-0.2-1.6-0.5c-0.4-0.3-0.5-0.9-0.5-1.7v-5.9c0,0,0-0.1-0.1-0.1
				h-0.8c-0.1,0-0.2-0.1-0.2-0.2v-0.4c0-0.1,0.1-0.2,0.2-0.2h0.8c0,0,0.1,0,0.1-0.1v-2c0-0.1,0.1-0.2,0.2-0.2h0.5
				c0.1,0,0.2,0.1,0.2,0.2v2c0,0,0,0.1,0.1,0.1h1.6c0.1,0,0.2,0.1,0.2,0.2v0.4C694.1-118.3,694.1-118.3,694-118.3z"/>
			<path class="st7" d="M700.8-110.9c-0.6-0.6-0.9-1.4-0.9-2.4v-6c0-1,0.3-1.8,0.9-2.4c0.6-0.6,1.4-0.9,2.3-0.9
				c0.6,0,1.2,0.1,1.7,0.4c0.5,0.3,0.9,0.7,1.1,1.2c0.3,0.5,0.4,1.1,0.4,1.7v0.5c0,0.1-0.1,0.2-0.2,0.2h-0.5c-0.1,0-0.2-0.1-0.2-0.2
				v-0.5c0-0.7-0.2-1.3-0.6-1.8c-0.4-0.4-1-0.7-1.7-0.7c-0.7,0-1.3,0.2-1.7,0.7c-0.4,0.5-0.6,1-0.6,1.8v6.1c0,0.7,0.2,1.3,0.6,1.8
				c0.4,0.5,1,0.7,1.7,0.7c0.7,0,1.3-0.2,1.7-0.7c0.4-0.4,0.6-1,0.6-1.7v-2.2c0,0,0-0.1-0.1-0.1h-2.1c-0.1,0-0.2-0.1-0.2-0.2v-0.5
				c0-0.1,0.1-0.2,0.2-0.2h2.8c0.1,0,0.2,0.1,0.2,0.2v2.7c0,1-0.3,1.8-0.9,2.5c-0.6,0.6-1.4,0.9-2.3,0.9
				C702.2-110,701.4-110.3,700.8-110.9z"/>
			<path class="st7" d="M713.3-118.4c0.5,0.5,0.7,1.3,0.7,2.2v5.9c0,0.1-0.1,0.2-0.2,0.2h-0.5c-0.1,0-0.2-0.1-0.2-0.2v-0.7
				c0,0,0,0,0,0s0,0-0.1,0c-0.3,0.4-0.6,0.6-1,0.8c-0.4,0.2-0.8,0.3-1.3,0.3c-0.7,0-1.3-0.2-1.7-0.6c-0.5-0.4-0.7-1-0.7-1.9
				c0-0.9,0.3-1.6,0.8-2.1s1.3-0.7,2.3-0.7h1.6c0,0,0.1,0,0.1-0.1v-0.8c0-0.7-0.2-1.2-0.5-1.6c-0.3-0.4-0.8-0.6-1.4-0.6
				c-0.5,0-0.9,0.1-1.2,0.4c-0.3,0.3-0.5,0.6-0.6,1c0,0.1-0.1,0.2-0.2,0.2l-0.6,0c-0.1,0-0.1,0-0.1-0.1c0,0,0-0.1,0-0.1
				c0.1-0.6,0.4-1.2,0.9-1.6c0.5-0.4,1.1-0.6,1.8-0.6C712.2-119.2,712.9-118.9,713.3-118.4z M712.5-111.3c0.4-0.3,0.6-0.8,0.6-1.5
				v-1.7c0,0,0-0.1-0.1-0.1h-1.6c-0.7,0-1.2,0.2-1.6,0.5c-0.4,0.3-0.6,0.8-0.6,1.5c0,0.6,0.2,1,0.5,1.3c0.3,0.3,0.7,0.4,1.2,0.4
				C711.6-110.8,712.1-111,712.5-111.3z"/>
			<path class="st7" d="M720.3-118.9c0.1,0,0.1,0.1,0.1,0.2l-0.1,0.6c0,0.1-0.1,0.2-0.2,0.1c-0.2-0.1-0.4-0.1-0.5-0.1l-0.2,0
				c-0.5,0-0.9,0.3-1.3,0.7c-0.3,0.5-0.5,1.1-0.5,1.7v5.4c0,0.1-0.1,0.2-0.2,0.2h-0.5c-0.1,0-0.2-0.1-0.2-0.2v-8.6
				c0-0.1,0.1-0.2,0.2-0.2h0.5c0.1,0,0.2,0.1,0.2,0.2v1.2c0,0,0,0.1,0,0.1c0,0,0,0,0-0.1c0.2-0.4,0.4-0.8,0.8-1.1
				c0.3-0.3,0.7-0.4,1.1-0.4C719.8-119.1,720.1-119,720.3-118.9z"/>
			<path class="st7" d="M726.7-118.4c0.5,0.5,0.7,1.3,0.7,2.2v5.9c0,0.1-0.1,0.2-0.2,0.2h-0.5c-0.1,0-0.2-0.1-0.2-0.2v-0.7
				c0,0,0,0,0,0s0,0-0.1,0c-0.3,0.4-0.6,0.6-1,0.8c-0.4,0.2-0.8,0.3-1.3,0.3c-0.7,0-1.3-0.2-1.7-0.6c-0.5-0.4-0.7-1-0.7-1.9
				c0-0.9,0.3-1.6,0.8-2.1s1.3-0.7,2.3-0.7h1.6c0,0,0.1,0,0.1-0.1v-0.8c0-0.7-0.2-1.2-0.5-1.6c-0.3-0.4-0.8-0.6-1.4-0.6
				c-0.5,0-0.9,0.1-1.2,0.4c-0.3,0.3-0.5,0.6-0.6,1c0,0.1-0.1,0.2-0.2,0.2l-0.6,0c-0.1,0-0.1,0-0.1-0.1c0,0,0-0.1,0-0.1
				c0.1-0.6,0.4-1.2,0.9-1.6c0.5-0.4,1.1-0.6,1.8-0.6C725.5-119.2,726.2-118.9,726.7-118.4z M725.8-111.3c0.4-0.3,0.6-0.8,0.6-1.5
				v-1.7c0,0,0-0.1-0.1-0.1h-1.6c-0.7,0-1.2,0.2-1.6,0.5c-0.4,0.3-0.6,0.8-0.6,1.5c0,0.6,0.2,1,0.5,1.3c0.3,0.3,0.7,0.4,1.2,0.4
				C724.9-110.8,725.4-111,725.8-111.3z"/>
			<path class="st7" d="M734.6-119h0.5c0.1,0,0.2,0.1,0.2,0.2v8.6c0,2.5-1.2-0.2-3.7-0.3c0,0-0.8,0-0.8,0c-0.1,0-0.2-0.1-0.2-0.2
				l0-0.5c0-0.1,0.1-0.2,0.2-0.2c0.1,0,0.8,0,0.9,0c0.9,0,1.6-0.2,2-0.7c0.5-0.5,0.7,2.8,0.7,1.8v-0.8c0,0,0-0.1,0-0.1c0,0,0,0,0,0
				c-0.2,0.3-0.5,0.6-0.8,0.8c-0.3,0.2-0.7,0.3-1.2,0.3c-0.7,0-1.3-0.2-1.8-0.7c-0.5-0.4-0.7-1.1-0.8-1.8c-0.1-0.5-0.1-1.1-0.1-2.1
				c0-1,0-1.7,0.1-2.1c0.1-0.7,0.4-1.3,0.8-1.8c0.5-0.5,1-0.7,1.7-0.7c0.4,0,0.8,0.1,1.2,0.3c0.3,0.2,0.6,0.5,0.8,0.8c0,0,0,0.1,0,0
				c0,0,0,0,0-0.1v-0.7C734.4-119,734.5-119,734.6-119z M734.4-114.6c0-0.6,0-1.2,0-1.9c0-0.5-0.2-1-0.6-1.3
				c-0.3-0.4-0.8-0.5-1.3-0.5c-0.5,0-0.9,0.2-1.3,0.5c-0.3,0.4-0.5,0.8-0.6,1.3c0,0.7-0.1,1.3-0.1,1.9c0,0.7,0,1.3,0.1,1.9
				c0.1,0.5,0.3,1,0.6,1.3c0.4,0.3,0.8,0.5,1.3,0.5c0.5,0,0.9-0.2,1.3-0.5c0.3-0.4,0.5-0.8,0.6-1.3
				C734.4-113.3,734.4-114,734.4-114.6z"/>
			<path class="st7" d="M741.8-111.2c0.3-0.3,0.6-0.6,0.7-1c0-0.1,0.1-0.1,0.2-0.1l0.4,0.1c0.1,0,0.1,0,0.1,0.1c0,0,0,0.1,0,0.1
				c-0.2,0.6-0.5,1.1-0.9,1.5c-0.5,0.4-1.1,0.6-1.7,0.6c-0.7,0-1.4-0.2-1.9-0.7c-0.5-0.4-0.8-1-0.9-1.8c-0.1-0.5-0.1-1.2-0.1-2.2
				s0-1.6,0.1-2c0.1-0.8,0.4-1.4,0.9-1.8c0.5-0.5,1.1-0.7,1.9-0.7c0.8,0,1.5,0.2,2,0.7c0.5,0.5,0.8,1.1,0.9,2c0,0.4,0,1.1,0,2
				c0,0.1-0.1,0.2-0.2,0.2h-4.6c0,0-0.1,0-0.1,0.1c0,0.6,0,1.1,0,1.5c0.1,0.6,0.3,1,0.6,1.4c0.4,0.3,0.8,0.5,1.4,0.5
				C741.1-110.8,741.5-110.9,741.8-111.2z M739.2-117.8c-0.3,0.3-0.5,0.8-0.6,1.3c0,0.3,0,0.7-0.1,1.4c0,0,0,0.1,0.1,0.1h3.8
				c0,0,0.1,0,0.1-0.1c0-0.5,0-1,0-1.3c-0.1-0.6-0.3-1-0.6-1.4c-0.4-0.3-0.8-0.5-1.3-0.5C740-118.3,739.6-118.2,739.2-117.8z"/>
			<path class="st7" d="M749.7-110.3v-12c0-0.1,0.1-0.2,0.2-0.2h3.1c0.9,0,1.7,0.3,2.2,0.9c0.5,0.6,0.8,1.4,0.8,2.4v5.8
				c0,1-0.3,1.8-0.8,2.4c-0.5,0.6-1.3,0.9-2.2,0.9h-3.1C749.8-110.1,749.7-110.2,749.7-110.3z M750.7-110.9h2.4
				c0.6,0,1.2-0.2,1.5-0.7c0.4-0.5,0.6-1.1,0.6-1.8v-5.7c0-0.8-0.2-1.4-0.6-1.9c-0.4-0.4-0.9-0.7-1.6-0.7h-2.4c0,0-0.1,0-0.1,0.1
				L750.7-110.9C750.6-110.9,750.6-110.9,750.7-110.9z"/>
			<path class="st7" d="M759.4-110.6c-0.5-0.5-0.8-1.1-0.9-1.8c-0.1-0.6-0.1-1.3-0.1-2.1c0-0.8,0-1.5,0.1-2.1
				c0.1-0.8,0.4-1.4,0.9-1.8c0.5-0.5,1.1-0.7,1.9-0.7c0.7,0,1.4,0.2,1.9,0.7c0.5,0.5,0.8,1.1,0.9,1.8c0.1,0.5,0.1,1.2,0.1,2.1
				c0,0.9,0,1.6-0.1,2.1c-0.1,0.8-0.4,1.4-0.9,1.8c-0.5,0.5-1.1,0.7-1.9,0.7C760.5-110,759.9-110.2,759.4-110.6z M762.6-111.3
				c0.4-0.3,0.6-0.8,0.6-1.4c0-0.3,0-1,0-1.9s0-1.6,0-1.9c-0.1-0.6-0.3-1-0.6-1.4c-0.4-0.3-0.8-0.5-1.3-0.5s-1,0.2-1.3,0.5
				c-0.4,0.3-0.6,0.8-0.6,1.4c0,0.3,0,1,0,1.9s0,1.6,0,1.9c0.1,0.6,0.3,1,0.6,1.4c0.4,0.3,0.8,0.5,1.3,0.5S762.3-111,762.6-111.3z"
				/>
			<path class="st7" d="M767.5-110.6c-0.5-0.5-0.8-1.1-0.9-1.8c-0.1-0.6-0.1-1.3-0.1-2.1c0-0.8,0-1.5,0.1-2.1
				c0.1-0.8,0.4-1.4,0.9-1.8c0.5-0.5,1.1-0.7,1.9-0.7c0.7,0,1.4,0.2,1.9,0.7c0.5,0.5,0.8,1.1,0.9,1.8c0.1,0.5,0.1,1.2,0.1,2.1
				c0,0.9,0,1.6-0.1,2.1c-0.1,0.8-0.4,1.4-0.9,1.8c-0.5,0.5-1.1,0.7-1.9,0.7C768.6-110,768-110.2,767.5-110.6z M770.7-111.3
				c0.4-0.3,0.6-0.8,0.6-1.4c0-0.3,0-1,0-1.9s0-1.6,0-1.9c-0.1-0.6-0.3-1-0.6-1.4c-0.4-0.3-0.8-0.5-1.3-0.5c-0.5,0-1,0.2-1.3,0.5
				c-0.4,0.3-0.6,0.8-0.6,1.4c0,0.3,0,1,0,1.9s0,1.6,0,1.9c0.1,0.6,0.3,1,0.6,1.4c0.4,0.3,0.8,0.5,1.3,0.5
				C769.9-110.8,770.3-111,770.7-111.3z"/>
			<path class="st7" d="M778.5-118.9c0.1,0,0.1,0.1,0.1,0.2l-0.1,0.6c0,0.1-0.1,0.2-0.2,0.1c-0.2-0.1-0.4-0.1-0.5-0.1l-0.2,0
				c-0.5,0-0.9,0.3-1.3,0.7c-0.3,0.5-0.5,1.1-0.5,1.7v5.4c0,0.1-0.1,0.2-0.2,0.2H775c-0.1,0-0.2-0.1-0.2-0.2v-8.6
				c0-0.1,0.1-0.2,0.2-0.2h0.5c0.1,0,0.2,0.1,0.2,0.2v1.2c0,0,0,0.1,0,0.1c0,0,0,0,0-0.1c0.2-0.4,0.4-0.8,0.8-1.1
				c0.3-0.3,0.7-0.4,1.1-0.4C778-119.1,778.3-119,778.5-118.9z"/>
		</g>
	</g>
	<g class="st2">
		<g>
			<path class="st3" d="M1251-148.7l8.8-19.7h3.6l8.9,19.7h-3.8l-7.6-17.7h1.5l-7.6,17.7H1251z M1255.1-153.2l1-2.9h10.6l1,2.9
				H1255.1z"/>
			<path class="st3" d="M1274.8-148.7v-19.7h3l8.6,14.3h-1.6l8.5-14.3h3l0.1,19.7h-3.5v-14.2h0.7l-7.1,12h-1.7l-7.3-12h0.8v14.2
				H1274.8z"/>
			<path class="st3" d="M1305.3-151.8h11.1v3.1h-14.7v-19.7h14.3v3.1h-10.7V-151.8z M1305-160.2h9.8v3h-9.8V-160.2z"/>
			<path class="st3" d="M1320.4-148.7v-19.7h8.1c1.7,0,3.2,0.3,4.5,0.8c1.2,0.6,2.2,1.4,2.9,2.4c0.7,1,1,2.3,1,3.8
				c0,1.4-0.3,2.7-1,3.7c-0.7,1-1.6,1.8-2.9,2.4c-1.2,0.6-2.7,0.8-4.5,0.8h-6l1.6-1.6v7.4H1320.4z M1324.1-155.6l-1.6-1.8h5.9
				c1.6,0,2.8-0.3,3.6-1s1.2-1.7,1.2-2.9s-0.4-2.2-1.2-2.9c-0.8-0.7-2-1-3.6-1h-5.9l1.6-1.8V-155.6z M1333.3-148.7l-5-7.1h3.9l5,7.1
				H1333.3z"/>
			<path class="st3" d="M1341-148.7v-19.7h3.6v19.7H1341z"/>
			<path class="st3" d="M1359-148.4c-1.5,0-2.9-0.2-4.2-0.7c-1.3-0.5-2.4-1.2-3.3-2.1s-1.7-2-2.2-3.2c-0.5-1.2-0.8-2.6-0.8-4
				s0.3-2.8,0.8-4c0.5-1.2,1.3-2.3,2.2-3.2c1-0.9,2.1-1.6,3.3-2.1c1.3-0.5,2.7-0.7,4.2-0.7c1.6,0,3.1,0.3,4.4,0.8
				c1.3,0.6,2.5,1.4,3.4,2.5l-2.4,2.2c-0.7-0.8-1.5-1.3-2.4-1.7c-0.9-0.4-1.8-0.6-2.8-0.6c-1,0-2,0.2-2.8,0.5s-1.6,0.8-2.2,1.4
				s-1.1,1.3-1.5,2.2s-0.5,1.8-0.5,2.8s0.2,1.9,0.5,2.8c0.4,0.8,0.8,1.6,1.5,2.2s1.4,1.1,2.2,1.4s1.8,0.5,2.8,0.5c1,0,2-0.2,2.8-0.6
				c0.9-0.4,1.7-1,2.4-1.8l2.4,2.2c-0.9,1.1-2,1.9-3.4,2.5C1362.1-148.7,1360.6-148.4,1359-148.4z"/>
			<path class="st3" d="M1367.5-148.7l8.8-19.7h3.6l8.9,19.7h-3.8l-7.6-17.7h1.5l-7.6,17.7H1367.5z M1371.6-153.2l1-2.9h10.6l1,2.9
				H1371.6z"/>
			<path class="st3" d="M1391.3-148.7v-19.7h3l12.3,15.2h-1.5v-15.2h3.6v19.7h-3l-12.3-15.2h1.5v15.2H1391.3z"/>
			<path class="st3" d="M1421.8-148.7v-19.7h9.2c2.3,0,4.1,0.5,5.4,1.4c1.2,0.9,1.9,2.2,1.9,3.7c0,1-0.2,1.9-0.7,2.7
				c-0.5,0.7-1.1,1.3-2,1.7s-1.7,0.6-2.7,0.6l0.5-1c1.1,0,2.1,0.2,3,0.6c0.9,0.4,1.6,1,2.1,1.8c0.5,0.8,0.8,1.7,0.8,2.9
				c0,1.7-0.6,3-1.9,3.9c-1.3,0.9-3.2,1.4-5.7,1.4H1421.8z M1425.5-151.5h5.9c1.3,0,2.4-0.2,3.1-0.7c0.7-0.4,1.1-1.2,1.1-2.2
				c0-1-0.4-1.7-1.1-2.1c-0.7-0.5-1.8-0.7-3.1-0.7h-6.2v-2.8h5.4c1.3,0,2.2-0.2,2.9-0.7s1-1.1,1-2c0-0.9-0.3-1.6-1-2
				c-0.7-0.4-1.7-0.7-2.9-0.7h-5.2V-151.5z"/>
			<path class="st3" d="M1443.2-148.7v-19.7h8.1c1.7,0,3.2,0.3,4.5,0.8c1.2,0.6,2.2,1.4,2.9,2.4c0.7,1,1,2.3,1,3.8
				c0,1.4-0.3,2.7-1,3.7c-0.7,1-1.6,1.8-2.9,2.4c-1.2,0.6-2.7,0.8-4.5,0.8h-6l1.6-1.6v7.4H1443.2z M1446.8-155.6l-1.6-1.8h5.9
				c1.6,0,2.8-0.3,3.6-1s1.2-1.7,1.2-2.9s-0.4-2.2-1.2-2.9c-0.8-0.7-2-1-3.6-1h-5.9l1.6-1.8V-155.6z M1456.1-148.7l-5-7.1h3.9l5,7.1
				H1456.1z"/>
			<path class="st3" d="M1472.9-148.4c-1.5,0-2.9-0.3-4.2-0.8c-1.3-0.5-2.4-1.2-3.4-2.1c-1-0.9-1.7-2-2.2-3.2
				c-0.5-1.2-0.8-2.6-0.8-4c0-1.5,0.3-2.8,0.8-4c0.5-1.2,1.3-2.3,2.2-3.2c1-0.9,2.1-1.6,3.4-2.1s2.7-0.8,4.2-0.8
				c1.5,0,2.9,0.2,4.2,0.7c1.3,0.5,2.4,1.2,3.4,2.1c0.9,0.9,1.7,2,2.2,3.2c0.5,1.2,0.8,2.6,0.8,4c0,1.5-0.3,2.8-0.8,4
				c-0.5,1.2-1.3,2.3-2.2,3.2c-0.9,0.9-2.1,1.6-3.4,2.1C1475.8-148.6,1474.4-148.4,1472.9-148.4z M1472.9-151.6c1,0,1.9-0.2,2.7-0.5
				c0.8-0.3,1.6-0.8,2.2-1.4c0.6-0.6,1.1-1.3,1.4-2.2c0.3-0.8,0.5-1.8,0.5-2.8s-0.2-1.9-0.5-2.8s-0.8-1.6-1.4-2.2
				c-0.6-0.6-1.4-1.1-2.2-1.4c-0.8-0.3-1.7-0.5-2.7-0.5c-1,0-1.9,0.2-2.8,0.5s-1.6,0.8-2.2,1.4c-0.6,0.6-1.1,1.4-1.5,2.2
				c-0.4,0.8-0.5,1.8-0.5,2.8c0,1,0.2,1.9,0.5,2.8s0.8,1.6,1.5,2.2c0.6,0.6,1.4,1.1,2.2,1.4S1471.9-151.6,1472.9-151.6z"/>
			<path class="st3" d="M1487.4-148.7v-19.7h3.6v19.7H1487.4z M1490.6-153.3l-0.2-4.3l10.3-10.7h4.1l-8.6,9.1l-2,2.2L1490.6-153.3z
				 M1501.1-148.7l-7.6-9l2.4-2.7l9.4,11.6H1501.1z"/>
			<path class="st3" d="M1511.5-151.8h11.1v3.1h-14.7v-19.7h14.3v3.1h-10.7V-151.8z M1511.2-160.2h9.8v3h-9.8V-160.2z"/>
			<path class="st3" d="M1526.6-148.7v-19.7h3l12.3,15.2h-1.5v-15.2h3.6v19.7h-3l-12.3-15.2h1.5v15.2H1526.6z"/>
			<path class="st3" d="M1557.1-148.7v-19.7h9.2c2.3,0,4.1,0.5,5.4,1.4c1.2,0.9,1.9,2.2,1.9,3.7c0,1-0.2,1.9-0.7,2.7
				c-0.5,0.7-1.1,1.3-2,1.7s-1.7,0.6-2.7,0.6l0.5-1c1.1,0,2.1,0.2,3,0.6c0.9,0.4,1.6,1,2.1,1.8c0.5,0.8,0.8,1.7,0.8,2.9
				c0,1.7-0.6,3-1.9,3.9c-1.3,0.9-3.2,1.4-5.7,1.4H1557.1z M1560.8-151.5h5.9c1.3,0,2.4-0.2,3.1-0.7c0.7-0.4,1.1-1.2,1.1-2.2
				c0-1-0.4-1.7-1.1-2.1c-0.7-0.5-1.8-0.7-3.1-0.7h-6.2v-2.8h5.4c1.3,0,2.2-0.2,2.9-0.7s1-1.1,1-2c0-0.9-0.3-1.6-1-2
				c-0.7-0.4-1.7-0.7-2.9-0.7h-5.2V-151.5z"/>
			<path class="st3" d="M1578.5-148.7v-19.7h8.1c1.7,0,3.2,0.3,4.5,0.8c1.2,0.6,2.2,1.4,2.9,2.4c0.7,1,1,2.3,1,3.8
				c0,1.4-0.3,2.7-1,3.7c-0.7,1-1.6,1.8-2.9,2.4c-1.2,0.6-2.7,0.8-4.5,0.8h-6l1.6-1.6v7.4H1578.5z M1582.1-155.6l-1.6-1.8h5.9
				c1.6,0,2.8-0.3,3.6-1s1.2-1.7,1.2-2.9s-0.4-2.2-1.2-2.9c-0.8-0.7-2-1-3.6-1h-5.9l1.6-1.8V-155.6z M1591.3-148.7l-5-7.1h3.9l5,7.1
				H1591.3z"/>
			<path class="st3" d="M1599-148.7v-19.7h3.6v19.7H1599z"/>
			<path class="st3" d="M1608-148.7v-19.7h8.6c2.1,0,4,0.4,5.6,1.2c1.6,0.8,2.9,2,3.8,3.4c0.9,1.5,1.3,3.2,1.3,5.2
				c0,2-0.4,3.7-1.3,5.2c-0.9,1.5-2.2,2.6-3.8,3.4s-3.5,1.2-5.6,1.2H1608z M1611.6-151.8h4.7c1.5,0,2.8-0.3,3.8-0.8s1.9-1.3,2.5-2.4
				s0.9-2.2,0.9-3.6c0-1.4-0.3-2.5-0.9-3.5c-0.6-1-1.5-1.8-2.5-2.3c-1.1-0.6-2.4-0.8-3.8-0.8h-4.7V-151.8z"/>
			<path class="st3" d="M1640.3-148.4c-1.5,0-2.9-0.2-4.2-0.7c-1.3-0.5-2.4-1.2-3.4-2.1c-1-0.9-1.7-2-2.2-3.2
				c-0.5-1.2-0.8-2.6-0.8-4s0.3-2.8,0.8-4c0.5-1.2,1.3-2.3,2.2-3.2s2.1-1.6,3.4-2.1c1.3-0.5,2.7-0.7,4.3-0.7c1.6,0,3.1,0.3,4.5,0.8
				c1.3,0.5,2.5,1.3,3.4,2.4l-2.3,2.2c-0.8-0.8-1.6-1.3-2.5-1.7c-0.9-0.4-1.9-0.5-2.9-0.5c-1,0-2,0.2-2.9,0.5
				c-0.9,0.3-1.6,0.8-2.3,1.4c-0.6,0.6-1.1,1.3-1.5,2.2s-0.5,1.8-0.5,2.8c0,1,0.2,1.9,0.5,2.8s0.9,1.6,1.5,2.2
				c0.6,0.6,1.4,1.1,2.2,1.4s1.8,0.5,2.9,0.5c1,0,1.9-0.2,2.8-0.5c0.9-0.3,1.8-0.8,2.6-1.6l2,2.7c-1,0.8-2.2,1.4-3.5,1.9
				C1643.1-148.6,1641.7-148.4,1640.3-148.4z M1644.6-151.4v-7.3h3.4v7.8L1644.6-151.4z"/>
			<path class="st3" d="M1656.5-151.8h11.1v3.1h-14.7v-19.7h14.3v3.1h-10.7V-151.8z M1656.2-160.2h9.8v3h-9.8V-160.2z"/>
			<path class="st3" d="M1679.4-148.7v-19.7h8.1c1.7,0,3.2,0.3,4.5,0.8c1.2,0.6,2.2,1.4,2.9,2.4c0.7,1,1,2.3,1,3.8
				c0,1.4-0.3,2.7-1,3.7c-0.7,1-1.6,1.8-2.9,2.4c-1.2,0.6-2.7,0.9-4.5,0.9h-6l1.6-1.7v7.4H1679.4z M1683-155.6l-1.6-1.8h5.9
				c1.6,0,2.8-0.3,3.6-1c0.8-0.7,1.2-1.6,1.2-2.9s-0.4-2.2-1.2-2.9c-0.8-0.7-2-1-3.6-1h-5.9l1.6-1.8V-155.6z"/>
			<path class="st3" d="M1697-148.7l8.8-19.7h3.6l8.9,19.7h-3.8l-7.6-17.7h1.5l-7.6,17.7H1697z M1701-153.2l1-2.9h10.6l1,2.9H1701z"
				/>
			<path class="st3" d="M1720.8-148.7v-19.7h3l12.3,15.2h-1.5v-15.2h3.6v19.7h-3l-12.3-15.2h1.5v15.2H1720.8z"/>
			<path class="st3" d="M1747.2-151.8h11.1v3.1h-14.7v-19.7h14.3v3.1h-10.7V-151.8z M1746.9-160.2h9.8v3h-9.8V-160.2z"/>
			<path class="st3" d="M1762.3-148.7v-19.7h3.6v16.6h10.3v3.1H1762.3z"/>
		</g>
	</g>
	<g class="st2">
		<g>
			<g>
				<path class="st7" d="M1569.4-121.8v-17.5h2.1l7.9,13.3h-1.1l7.8-13.3h2.1l0,17.5h-2.4l0-13.8h0.6l-6.9,11.6h-1.2l-7-11.6h0.6
					v13.8H1569.4z"/>
				<path class="st7" d="M1598.7-121.6c-1.3,0-2.5-0.3-3.5-0.9c-1-0.6-1.9-1.4-2.5-2.4c-0.6-1-0.9-2.2-0.9-3.5
					c0-1.3,0.3-2.5,0.9-3.5c0.6-1,1.4-1.8,2.5-2.4s2.2-0.9,3.6-0.9c1.3,0,2.5,0.3,3.5,0.9c1,0.6,1.9,1.4,2.5,2.4
					c0.6,1,0.9,2.2,0.9,3.5c0,1.3-0.3,2.5-0.9,3.5c-0.6,1-1.4,1.8-2.5,2.4C1601.2-121.9,1600-121.6,1598.7-121.6z M1598.7-123.8
					c0.9,0,1.6-0.2,2.3-0.6c0.7-0.4,1.2-0.9,1.6-1.6c0.4-0.7,0.6-1.5,0.6-2.5c0-1-0.2-1.8-0.6-2.5c-0.4-0.7-0.9-1.2-1.6-1.6
					s-1.4-0.6-2.3-0.6c-0.9,0-1.6,0.2-2.3,0.6s-1.2,0.9-1.6,1.6c-0.4,0.7-0.6,1.5-0.6,2.5c0,0.9,0.2,1.8,0.6,2.5
					c0.4,0.7,0.9,1.3,1.6,1.6C1597.1-123.9,1597.8-123.8,1598.7-123.8z"/>
				<path class="st7" d="M1614.4-121.6c-1.3,0-2.4-0.3-3.4-0.9s-1.8-1.4-2.4-2.4c-0.6-1-0.9-2.2-0.9-3.6s0.3-2.5,0.9-3.5
					c0.6-1,1.4-1.8,2.4-2.4s2.2-0.9,3.4-0.9c1.1,0,2.1,0.3,3,0.8c0.9,0.5,1.6,1.3,2.2,2.3s0.8,2.3,0.8,3.8s-0.3,2.8-0.8,3.8
					s-1.2,1.8-2.1,2.3C1616.6-121.9,1615.6-121.6,1614.4-121.6z M1614.6-123.8c0.8,0,1.6-0.2,2.3-0.6c0.7-0.4,1.2-0.9,1.6-1.6
					c0.4-0.7,0.6-1.5,0.6-2.5c0-1-0.2-1.8-0.6-2.5s-0.9-1.2-1.6-1.6s-1.4-0.6-2.3-0.6c-0.9,0-1.6,0.2-2.3,0.6s-1.2,0.9-1.6,1.6
					c-0.4,0.7-0.6,1.5-0.6,2.5c0,0.9,0.2,1.8,0.6,2.5c0.4,0.7,0.9,1.3,1.6,1.6C1613-123.9,1613.7-123.8,1614.6-123.8z M1619.1-121.8
					v-3.6l0.2-3.1l-0.3-3.1v-8.8h2.4v18.6H1619.1z"/>
				<path class="st7" d="M1631.9-121.6c-1.4,0-2.7-0.3-3.7-0.9c-1.1-0.6-1.9-1.4-2.5-2.4c-0.6-1-0.9-2.2-0.9-3.5
					c0-1.3,0.3-2.5,0.9-3.5c0.6-1,1.4-1.8,2.4-2.4c1-0.6,2.2-0.9,3.4-0.9c1.3,0,2.4,0.3,3.4,0.9c1,0.6,1.8,1.4,2.3,2.4
					c0.6,1,0.8,2.2,0.8,3.6c0,0.1,0,0.2,0,0.4c0,0.1,0,0.3,0,0.4h-11.3v-1.7h10.1l-1,0.6c0-0.9-0.2-1.6-0.5-2.3
					c-0.4-0.7-0.9-1.2-1.5-1.6s-1.4-0.6-2.2-0.6c-0.8,0-1.6,0.2-2.2,0.6s-1.2,0.9-1.5,1.6s-0.6,1.4-0.6,2.3v0.4
					c0,0.9,0.2,1.7,0.6,2.4s1,1.2,1.7,1.6c0.7,0.4,1.6,0.6,2.5,0.6c0.8,0,1.5-0.1,2.1-0.4c0.6-0.3,1.2-0.7,1.7-1.2l1.3,1.6
					c-0.6,0.7-1.3,1.2-2.2,1.6C1634-121.8,1633-121.6,1631.9-121.6z"/>
				<path class="st7" d="M1641.3-121.8v-18.6h2.4v18.6H1641.3z"/>
				<path class="st7" d="M1655.4-121.8v-17.5h2.1l11.6,14.4h-1.1v-14.4h2.5v17.5h-2.1l-11.6-14.4h1.1v14.4H1655.4z"/>
				<path class="st7" d="M1681.1-121.6c-1.3,0-2.5-0.3-3.5-0.9c-1-0.6-1.9-1.4-2.5-2.4c-0.6-1-0.9-2.2-0.9-3.5
					c0-1.3,0.3-2.5,0.9-3.5c0.6-1,1.4-1.8,2.5-2.4s2.2-0.9,3.6-0.9c1.3,0,2.5,0.3,3.5,0.9c1,0.6,1.9,1.4,2.5,2.4
					c0.6,1,0.9,2.2,0.9,3.5c0,1.3-0.3,2.5-0.9,3.5c-0.6,1-1.4,1.8-2.5,2.4C1683.6-121.9,1682.4-121.6,1681.1-121.6z M1681.1-123.8
					c0.9,0,1.6-0.2,2.3-0.6c0.7-0.4,1.2-0.9,1.6-1.6c0.4-0.7,0.6-1.5,0.6-2.5c0-1-0.2-1.8-0.6-2.5c-0.4-0.7-0.9-1.2-1.6-1.6
					s-1.4-0.6-2.3-0.6c-0.9,0-1.6,0.2-2.3,0.6s-1.2,0.9-1.6,1.6c-0.4,0.7-0.6,1.5-0.6,2.5c0,0.9,0.2,1.8,0.6,2.5
					c0.4,0.7,0.9,1.3,1.6,1.6C1679.5-123.9,1680.3-123.8,1681.1-123.8z"/>
				<path class="st7" d="M1691.9-121.6c-0.5,0-0.9-0.2-1.2-0.5c-0.3-0.3-0.5-0.7-0.5-1.2s0.2-0.9,0.5-1.2c0.3-0.3,0.7-0.5,1.2-0.5
					c0.5,0,0.8,0.2,1.2,0.5c0.3,0.3,0.5,0.7,0.5,1.2s-0.2,0.9-0.5,1.2C1692.8-121.8,1692.4-121.6,1691.9-121.6z"/>
				<path class="st7" d="M1701.8-121.8l7.3-10v1.9l-6.9-9.5h2.9l5.5,7.5l-1.1,0l5.4-7.5h2.7l-6.8,9.4v-1.8l7.3,10h-2.9l-5.8-8h1.1
					l-5.7,8H1701.8z"/>
				<path class="st7" d="M1723.5-121.8h-2.5v-17.5h12.4v2.2h-9.9V-121.8z M1723.3-131h9v2.2h-9V-131z"/>
				<path class="st7" d="M1736.9-121.8v-17.5h6.8c1.5,0,2.8,0.2,3.9,0.7c1.1,0.5,1.9,1.2,2.5,2.1s0.9,2,0.9,3.3s-0.3,2.4-0.9,3.3
					c-0.6,0.9-1.4,1.6-2.5,2.1c-1.1,0.5-2.4,0.7-3.9,0.7h-5.5l1.1-1.2v6.5H1736.9z M1739.4-128l-1.1-1.3h5.4c1.6,0,2.8-0.3,3.6-1
					c0.8-0.7,1.2-1.7,1.2-2.9c0-1.3-0.4-2.2-1.2-2.9c-0.8-0.7-2-1-3.6-1h-5.4l1.1-1.3V-128z"/>
				<path class="st7" d="M1753.8-127.6v-2.1h6.7v2.1H1753.8z"/>
				<path class="st7" d="M1768.8-121.6c-1.2,0-2.4-0.2-3.6-0.6s-2.1-0.9-2.8-1.6l1.2-2c0.6,0.6,1.3,1,2.3,1.4c0.9,0.4,1.9,0.5,3,0.5
					c1.3,0,2.4-0.3,3.1-0.9c0.7-0.6,1.1-1.3,1.1-2.3c0-0.7-0.2-1.2-0.5-1.7c-0.3-0.5-0.9-0.9-1.6-1.1c-0.8-0.3-1.8-0.4-3.2-0.4h-4
					l0.9-9.2h9.9v2.2h-9l1.3-1.2l-0.7,7.2l-1.3-1.2h3.4c1.8,0,3.2,0.2,4.2,0.7s1.8,1.1,2.3,1.9c0.5,0.8,0.7,1.7,0.7,2.7
					c0,1-0.2,1.9-0.7,2.7c-0.5,0.8-1.2,1.5-2.2,2C1771.6-121.8,1770.4-121.6,1768.8-121.6z"/>
			</g>
		</g>
	</g>
	<linearGradient id="SVGID_4_" gradientUnits="userSpaceOnUse" x1="608.2535" y1="-96.4636" x2="1797.5017" y2="-96.4636">
		<stop  offset="0" style="stop-color:#2DB4F0"/>
		<stop  offset="1" style="stop-color:#069FFA"/>
	</linearGradient>
	<rect x="608.3" y="-97.8" class="st8" width="1189.2" height="2.6"/>
</g>
<g id="Pattern">
</g>
<g>
	<g class="st0">
		<path class="st1" d="M1502.6,892.4v-33.9h4.8V873h8.5v-14.5h4.8v33.9h-4.8v-15.8h-8.5v15.8H1502.6z"/>
		<path class="st1" d="M1525.7,892.4v-33.9h13.3v3.6h-8.5V873h6.1v3.6h-6.1v12.1h8.5v3.7H1525.7z"/>
		<path class="st1" d="M1539.8,892.4l7.3-33.9h4.8l7.3,33.9h-4.9l-1.8-8.5h-6.1l-1.8,8.5H1539.8z M1547.1,880.3h4.8l-2.4-14.6
			L1547.1,880.3z"/>
		<path class="st1" d="M1562,892.4v-33.9h7.5c3.5,0,6.1,0.7,7.5,2.2c1.5,1.4,2.2,3.9,2.2,7.5v13.3c0,3.7-0.7,6.4-2.2,8.2
			c-1.5,1.8-4,2.7-7.5,2.7H1562z M1566.8,888.8h2.7c0.8,0,1.5-0.1,2-0.2c0.6-0.1,1.1-0.4,1.4-0.8c0.4-0.4,0.7-0.8,0.9-1.1
			c0.2-0.4,0.3-0.9,0.4-1.6c0.1-0.7,0.1-1.3,0.1-1.8c0-0.5,0-1.2,0-2.2c0-0.3,0-0.6,0-0.7v-10.9c0-0.6,0-1.1,0-1.5
			c0-0.4,0-0.8,0-1.3c0-0.5-0.1-0.9-0.2-1.2c0-0.3-0.1-0.6-0.2-1c-0.1-0.3-0.3-0.6-0.4-0.8c-0.2-0.2-0.4-0.4-0.6-0.6
			c-0.2-0.2-0.5-0.4-0.9-0.5c-0.3-0.1-0.7-0.2-1.1-0.3c-0.4-0.1-0.9-0.1-1.4-0.1h-2.6V888.8z"/>
		<path class="st1" d="M1583.4,892.4v-33.9h4.8v30.3h8.5v3.7H1583.4z"/>
		<path class="st1" d="M1599.2,892.4v-33.9h4.9v33.9H1599.2z"/>
		<path class="st1" d="M1609.2,892.4v-33.9h3.6l8.5,21v-21h4.9v33.9h-3.5l-8.7-22.6v22.6H1609.2z"/>
		<path class="st1" d="M1631,892.4v-33.9h13.3v3.6h-8.5V873h6.1v3.6h-6.1v12.1h8.5v3.7H1631z"/>
	</g>
</g>
<g id="Pattern_1_">
</g>
<g class="st0">
	<g class="st2">
		<g>
			<path class="st9" d="M730.3,618.8v-39.5h8.4c1.8,0,3.4,0.2,4.9,0.6c1.4,0.4,2.7,1,3.8,1.8c1.1,0.8,1.9,1.8,2.5,3.1
				c0.6,1.3,0.8,2.8,0.8,4.5c0,2.4-0.5,4.3-1.5,5.6c-1.1,1.3-2.7,2.2-4.8,2.8c2.4,0.8,4.1,1.9,5.3,3.5c1.2,1.5,1.8,3.7,1.8,6.4
				c0,3.5-1,6.2-3,8.3c-2,2-4.8,3-8.2,3H730.3z M736,596.2h2.8c4.7,0,7.1-2.3,7.1-7c0-0.8-0.1-1.5-0.3-2.1c-0.2-0.6-0.4-1.1-0.7-1.5
				c-0.3-0.4-0.6-0.8-1.2-1c-0.5-0.3-1-0.5-1.5-0.6c-0.4-0.1-1-0.3-1.9-0.3c-0.8-0.1-1.5-0.1-2-0.1c-0.5,0-1.3,0-2.3,0V596.2z
				 M736,614.5h2.8c2.5,0,4.2-0.5,5.4-1.7c1.1-1.1,1.7-2.9,1.7-5.4s-0.6-4.2-1.7-5.4c-1.1-1.1-2.9-1.6-5.4-1.6H736V614.5z"/>
		</g>
		<g>
			<path class="st9" d="M802.5,618.5c-1.3,0.4-2.8,0.7-4.5,0.7c-1.7,0-3.2-0.2-4.5-0.7c-1.3-0.5-2.4-1.1-3.2-1.9
				c-0.9-0.8-1.5-1.8-2.1-3c-0.5-1.2-0.9-2.6-1.1-4c-0.2-1.4-0.4-3-0.4-4.8v-25.4h5.6v25.4c0,1.2,0,2.3,0.1,3
				c0.1,0.8,0.2,1.7,0.4,2.6c0.2,1,0.5,1.7,0.9,2.2c0.4,0.6,0.9,1,1.6,1.4c0.7,0.4,1.6,0.5,2.6,0.5c1,0,1.9-0.2,2.6-0.5
				c0.7-0.4,1.3-0.8,1.7-1.4c0.4-0.6,0.7-1.3,0.9-2.2c0.2-0.9,0.4-1.8,0.4-2.6c0.1-0.8,0.1-1.8,0.1-3v-25.4h5.6v25.4
				c0,1.8-0.1,3.4-0.3,4.8c-0.2,1.4-0.6,2.8-1.1,4c-0.5,1.2-1.2,2.2-2.1,3C804.9,617.4,803.9,618,802.5,618.5z"/>
		</g>
		<g>
			<path class="st9" d="M856.4,619.1c-3.6,0-6.3-1-8.1-3.1c-1.9-2.1-2.9-4.9-3.1-8.6l5.6-1.4c0.3,5.6,2.2,8.5,5.6,8.5
				c2.8,0,4.2-1.4,4.2-4.2c0-0.9-0.1-1.6-0.3-2.3c-0.2-0.7-0.6-1.4-1-1.9c-0.5-0.6-0.9-1.1-1.3-1.5c-0.4-0.4-0.9-0.8-1.6-1.3
				l-7.1-5.7c-1.3-1-2.3-2.3-3.1-3.8c-0.8-1.5-1.2-3.4-1.2-5.3c0-2.9,0.9-5.2,2.7-6.9c1.8-1.7,4.2-2.6,7.2-2.6
				c3.3,0,5.8,0.8,7.7,2.3c1.9,1.6,3,3.8,3.5,6.6c0.1,0.3,0.1,0.8,0.1,1.3l-5.6,1.4c0-0.2,0-0.6-0.1-1.1c-0.3-1.8-0.8-3.2-1.7-4.3
				c-0.9-1.1-2.1-1.6-3.8-1.6c-1.3,0-2.4,0.4-3.1,1.2c-0.8,0.7-1.1,1.8-1.1,3.1c0,2.3,0.9,4.1,2.8,5.6l7,5.6c3.7,3,5.6,6.7,5.6,10.9
				c0,2.9-0.9,5.1-2.7,6.8C861.8,618.3,859.5,619.1,856.4,619.1z"/>
		</g>
		<g>
			<path class="st9" d="M902.2,618.8v-39.5h5.6v39.5H902.2z"/>
		</g>
		<g>
			<path class="st9" d="M945.4,618.8v-39.5h4.3l9.9,24.4v-24.4h5.6v39.5h-4L951,592.5v26.2H945.4z"/>
		</g>
		<g>
			<path class="st9" d="M1002.3,618.8v-39.5h15.5v4.2h-9.9v12.7h7v4.2h-7v14.1h9.9v4.2H1002.3z"/>
		</g>
		<g>
			<path class="st9" d="M1063,619.1c-3.6,0-6.3-1-8.1-3.1c-1.8-2.1-2.9-4.9-3.1-8.6l5.6-1.4c0.3,5.6,2.2,8.5,5.6,8.5
				c2.9,0,4.2-1.4,4.2-4.2c0-0.9-0.1-1.6-0.3-2.3c-0.2-0.7-0.6-1.4-1-1.9c-0.5-0.6-0.9-1.1-1.3-1.5c-0.4-0.4-0.9-0.8-1.6-1.3l-7-5.7
				c-1.3-1-2.3-2.3-3.1-3.8c-0.8-1.5-1.2-3.4-1.2-5.3c0-2.9,0.9-5.2,2.7-6.9c1.8-1.7,4.2-2.6,7.2-2.6c3.2,0,5.7,0.8,7.6,2.3
				c1.9,1.6,3,3.8,3.5,6.6c0.1,0.3,0.1,0.8,0.2,1.3l-5.7,1.4c0-0.2,0-0.6-0.1-1.1c-0.3-1.8-0.8-3.2-1.7-4.3
				c-0.9-1.1-2.2-1.6-3.8-1.6c-1.4,0-2.4,0.4-3.2,1.2c-0.7,0.7-1.1,1.8-1.1,3.1c0,2.3,1,4.1,2.8,5.6l7,5.6c3.8,3,5.7,6.7,5.7,10.9
				c0,2.9-0.9,5.1-2.7,6.8C1068.4,618.3,1066,619.1,1063,619.1z"/>
		</g>
		<g>
			<path class="st9" d="M1118.8,619.1c-3.5,0-6.3-1-8.1-3.1c-1.9-2.1-2.9-4.9-3.1-8.6l5.6-1.4c0.3,5.6,2.2,8.5,5.6,8.5
				c2.8,0,4.2-1.4,4.2-4.2c0-0.9-0.1-1.6-0.4-2.3c-0.2-0.7-0.6-1.4-1-1.9c-0.5-0.6-0.9-1.1-1.3-1.5c-0.4-0.4-0.9-0.8-1.6-1.3l-7-5.7
				c-1.3-1-2.3-2.3-3.1-3.8c-0.8-1.5-1.1-3.4-1.1-5.3c0-2.9,0.9-5.2,2.7-6.9c1.8-1.7,4.2-2.6,7.2-2.6c3.2,0,5.7,0.8,7.6,2.3
				c1.9,1.6,3,3.8,3.5,6.6c0.1,0.3,0.1,0.8,0.1,1.3l-5.6,1.4c0-0.2,0-0.6-0.1-1.1c-0.3-1.8-0.8-3.2-1.7-4.3
				c-0.9-1.1-2.1-1.6-3.8-1.6c-1.4,0-2.4,0.4-3.1,1.2c-0.7,0.7-1.1,1.8-1.1,3.1c0,2.3,0.9,4.1,2.8,5.6l7.1,5.6
				c3.7,3,5.6,6.7,5.6,10.9c0,2.9-0.9,5.1-2.7,6.8C1124.2,618.3,1121.8,619.1,1118.8,619.1z"/>
		</g>
	</g>
	<g class="st2">
		<path class="st9" d="M758.5,770.6V664.3h41.7v11.4h-26.6v34.2h19v11.4h-19v49.3H758.5z"/>
		<path class="st9" d="M831.5,770.6V664.3h15.2v94.9h26.6v11.4H831.5z"/>
		<path class="st9" d="M915.8,770.6v-34.2L893,664.3h15.2l15.2,53.1l15.2-53.1h15.2L931,736.4v34.2H915.8z"/>
		<path class="st9" d="M985.5,770.6V664.3h41.8v11.4h-26.6v34.2h19v11.4h-19v38h26.6v11.4H985.5z"/>
		<path class="st9" d="M1060.8,770.6V664.3h19c11.3,0,19.8,2.2,25.6,6.6c5.7,4.4,8.6,11.7,8.6,21.9c0,6.3-1.1,11.6-3.4,15.9
			c-2.2,4.3-5.5,7.2-9.9,8.8l17.1,53.1h-15.1l-15.3-49.3H1076v49.3H1060.8z M1076,709.9h3.8c6.3,0,11.1-1.3,14.2-4s4.8-7,4.8-13.1
			c0-6-1.6-10.4-4.8-13.1c-3.2-2.7-7.9-4-14.2-4h-3.8V709.9z"/>
	</g>
</g>
<g>
	<path class="st3" d="M335.5,51.2c-0.1,0.4-0.1,0.7-0.2,1.1c-0.4,2-1.5,3.1-3.5,3.4c-0.8,0.1-1.7,0.2-2.5,0.2c-22.4,0-44.9,0-67.3,0
		c-6.4,0-12.9,0-19.3,0c-8.6,0-17.1,0-25.7,0c-7.9,0-15.8,0-23.6,0c-5.5,0-11,0-16.5,0c-8.7,0-17.4,0-26.1-0.1
		c-2.8,0-5.4-0.9-7.8-2.4c-12-7.6-23.9-15.2-35.8-22.8c-3.5-2.3-7-4.6-10.5-6.9c-1.1-0.7-2.3-1.3-3.6-1.5c-1.6-0.2-3.1,0.3-4.5,1
		c-3.3,1.8-6.6,3.6-9.8,5.6c-7,4.4-14,8.9-20.9,13.3c-5.6,3.6-11.2,7.1-16.8,10.7c-1.2,0.8-2.4,1.6-3.5,2.6
		c-1.8,1.5-2.6,3.5-2.6,5.8c0,3.9,0,7.8,0,11.7c0,9.1,0,18.2,0,27.3c0,4.4-0.1,8.8-0.1,13.1c0,1.1,0,2.2,0,3.4
		c0,0.4,0.1,0.9,0.2,1.3c0.4,1.9,1.6,3,3.6,3.1c1.2,0.1,2.3,0.1,3.5,0.1c3.2,0,6.4,0,9.6,0c1.9,0,3.7-0.1,5.6-0.2c0.1,0,0.2,0,0.4,0
		c0-3,0-5.9,0-8.9c22.3,0,44.6,0,66.8,0c0,6.8,0,13.5,0,20.3c-0.2,0-0.4,0-0.6,0c-29,0-58,0-87,0c-2.7,0-5.4-0.3-8-1.1
		c-4-1.3-6.4-4-7.5-8c-0.6-2.4-0.9-4.8-0.9-7.3c0-5.4,0-10.7,0-16.1c0-8.3,0.1-16.7,0.1-25c0-3.9-0.1-7.9-0.2-11.8
		c-0.1-2.5-0.1-5,0.4-7.4c0.9-3.8,2.9-6.8,5.9-9.3c2.3-1.9,4.9-3.4,7.4-4.9C47.2,33,60.4,24.9,73.5,16.6c6-3.8,11.9-7.6,17.8-11.5
		c0.8-0.5,1.5-0.5,2.2,0c8.2,5.6,16.5,11.2,24.8,16.7c7.7,5.1,15.5,10.1,23.2,15.2c1.9,1.2,3.8,2.6,5.7,3.8
		c3.4,2.1,7.1,3.1,11.1,3.1c9.9,0,19.8,0,29.7,0c11.2,0,22.4,0,33.6,0c24.2,0,48.5,0,72.7,0c11.1,0,22.2,0,33.2,0
		c1.1,0,2.2,0,3.3,0.1c2.7,0.2,4.3,1.8,4.4,4.5c0,0.3,0.1,0.5,0.1,0.8C335.5,49.9,335.5,50.6,335.5,51.2z"/>
	<path class="st3" d="M57.5,87.3c22.3-0.3,44.5-0.2,66.8,0c0,6.8,0,13.5,0,20.3c-22.3,0-44.5,0-66.8,0
		C57.5,100.9,57.5,94.1,57.5,87.3z"/>
	<path class="st3" d="M57.6,82.6c0-0.2,0-0.3,0-0.4c0-5.4,0-10.8,0-16.2c0-2.5,2-3.7,3.7-3.7c19.8,0,39.7,0,59.5,0
		c1.9,0,3.8,1.4,3.7,3.7c0,5.3,0,10.7,0,16c0,0.2,0,0.3,0,0.5C102.2,82.6,79.9,82.6,57.6,82.6z"/>
	<g>
		<linearGradient id="SVGID_5_" gradientUnits="userSpaceOnUse" x1="167.9262" y1="64.2395" x2="173.2735" y2="133.7554">
			<stop  offset="0" style="stop-color:#2DB4F0"/>
			<stop  offset="1" style="stop-color:#069FFA"/>
		</linearGradient>
		<path class="st10" d="M148.8,132.2V65.7h43.6v10.1h-30.2v17.7H189v9.6h-26.8v19h30.7v10.1H148.8z"/>
		<linearGradient id="SVGID_6_" gradientUnits="userSpaceOnUse" x1="231.536" y1="64.645" x2="236.8878" y2="134.2195">
			<stop  offset="0" style="stop-color:#2DB4F0"/>
			<stop  offset="1" style="stop-color:#069FFA"/>
		</linearGradient>
		<path class="st11" d="M247.6,130.9c-1.2,0.7-2.9,1.2-5.1,1.7s-5.1,0.7-8.8,0.7c-3.6,0-7.2-0.4-10.7-1.2c-6.5-1.4-11-4-13.5-7.8
			c-2.5-3.7-3.8-8.4-3.8-14V88.2c0-9.2,2.9-15.6,8.7-19.2c4.7-2.9,11.6-4.4,20.7-4.4c14.6,0,23.2,4.1,25.9,12.3
			c0.9,2.8,1.4,6.1,1.4,10v1l-13.2,1v-2.7c0-4.3-1.1-7.3-3.2-8.8c-2.1-1.5-5.8-2.3-11.1-2.3c-5.3,0-9.2,0.8-11.9,2.5
			c-2.7,1.7-4,4.7-4,9v25.2c0,4.4,1.4,7.4,4.1,8.9c2.7,1.5,6.7,2.3,11.9,2.3c5.2,0,9-0.8,11.5-2.3c2.5-1.5,3.7-4.5,3.7-8.9v-4.9H237
			v-8.8h25.5v34.1h-7.1l-2.1-7.7c-0.4,1.3-1.1,2.5-2.2,3.7C250,129.4,248.9,130.3,247.6,130.9z"/>
		<linearGradient id="SVGID_7_" gradientUnits="userSpaceOnUse" x1="302.7355" y1="63.9289" x2="308.005" y2="132.4332">
			<stop  offset="0" style="stop-color:#2DB4F0"/>
			<stop  offset="1" style="stop-color:#069FFA"/>
		</linearGradient>
		<path class="st12" d="M279.6,132.2V65.7h28.8c10.6,0,17.8,3.2,21.5,9.5c2,3.5,3.1,8.1,3.1,13.7v20.4c0,11.2-4.3,18.3-12.8,21.2
			c-3.2,1.1-7.1,1.7-11.7,1.7H279.6z M293,121.8h14.3c4.6,0,7.8-0.8,9.6-2.5c1.8-1.7,2.7-4.4,2.7-8.2V87.2c0-3.8-0.9-6.5-2.8-8.3
			c-1.8-1.8-5-2.7-9.5-2.7H293V121.8z"/>
	</g>
	<g>
		<path class="st7" d="M36.6,139.8h-11c-0.1,0-0.1,0.1-0.1,0.2v10.5c0,0.1,0,0.2,0.1,0.2h7.5c0.2,0,0.4,0.1,0.4,0.4v1
			c0,0.3-0.1,0.4-0.4,0.4h-7.5c-0.1,0-0.1,0.1-0.1,0.2v10.5c0,0.1,0,0.2,0.1,0.2h11c0.2,0,0.4,0.1,0.4,0.4v1c0,0.3-0.1,0.4-0.4,0.4
			H23.9c-0.2,0-0.4-0.1-0.4-0.4v-26.2c0-0.3,0.1-0.4,0.4-0.4h12.7c0.2,0,0.4,0.1,0.4,0.4v1C36.9,139.7,36.8,139.8,36.6,139.8z"/>
		<path class="st7" d="M40.5,164.9c0-0.1,0-0.2,0-0.3l5.2-9.1c0-0.1,0-0.2,0-0.2l-5.2-9.1c0-0.1-0.1-0.2-0.1-0.2
			c0-0.2,0.1-0.2,0.3-0.2H42c0.2,0,0.3,0.1,0.4,0.3l4.3,7.6c0,0,0.1,0,0.1,0c0,0,0.1,0,0.1,0l4.2-7.6c0.1-0.2,0.3-0.3,0.4-0.3H53
			c0.1,0,0.2,0,0.3,0.1c0,0.1,0,0.2,0,0.3l-5.2,9.1c0,0.1,0,0.2,0,0.2l5.2,9.1c0,0.1,0.1,0.2,0.1,0.2c0,0.2-0.1,0.2-0.3,0.2h-1.3
			c-0.2,0-0.3-0.1-0.4-0.3l-4.2-7.6c0-0.1-0.1-0.1-0.1-0.1c0,0-0.1,0-0.1,0.1l-4.3,7.6c-0.1,0.2-0.3,0.3-0.4,0.3h-1.3
			C40.6,165,40.5,165,40.5,164.9z"/>
		<path class="st7" d="M58.8,163.8c-1.1-1-1.7-2.3-1.9-4c-0.2-1.2-0.3-2.8-0.3-4.6c0-1.5,0.1-3,0.3-4.5c0.2-1.6,0.8-2.9,1.9-4
			c1.1-1,2.4-1.5,4.1-1.5s3,0.5,4.1,1.4c1.1,1,1.8,2.1,2,3.5l0.1,0.7v0.1c0,0.2-0.1,0.3-0.3,0.3l-1.2,0.1c-0.2,0-0.3-0.1-0.4-0.3
			v-0.2c0-0.1,0-0.3-0.1-0.5c-0.2-0.9-0.6-1.7-1.4-2.4c-0.8-0.7-1.7-1-2.8-1c-1.1,0-2.1,0.4-2.8,1.1s-1.2,1.7-1.3,3
			c-0.1,1.2-0.2,2.6-0.2,4.1c0,1.6,0.1,3,0.2,4.1c0.1,1.2,0.6,2.2,1.3,3c0.8,0.7,1.7,1.1,2.8,1.1c1.2,0,2.1-0.4,2.9-1.1
			c0.8-0.7,1.2-1.6,1.3-2.6v-0.2c0-0.3,0.2-0.4,0.4-0.3l1.2,0.1c0.1,0,0.2,0,0.2,0.1c0.1,0.1,0.1,0.1,0.1,0.3v0.2l0,0.3
			c0,0,0,0.1,0,0.2c-0.2,1.4-0.8,2.6-1.9,3.6c-1.1,0.9-2.5,1.4-4.1,1.4C61.3,165.4,59.9,164.9,58.8,163.8z"/>
		<path class="st7" d="M82.5,162.7c0.7-0.6,1.2-1.3,1.5-2.2c0.1-0.2,0.2-0.3,0.4-0.3l1,0.2c0.1,0,0.2,0.1,0.2,0.2s0,0.2,0,0.3
			c-0.3,1.4-1,2.5-2,3.3c-1,0.8-2.3,1.2-3.8,1.2c-1.6,0-3-0.5-4-1.5c-1.1-1-1.7-2.3-1.9-3.9c-0.2-1.1-0.3-2.7-0.3-4.7
			c0-2.1,0-3.6,0.1-4.4c0.2-1.6,0.8-3,1.9-4c1.1-1,2.4-1.5,4.1-1.5c1.8,0,3.2,0.5,4.3,1.6c1.1,1.1,1.7,2.5,1.9,4.3
			c0.1,0.9,0.1,2.3,0.1,4.4c0,0.3-0.1,0.4-0.4,0.4h-10c-0.1,0-0.1,0.1-0.1,0.2c0,1.3,0,2.4,0.1,3.3c0.1,1.2,0.6,2.2,1.3,3
			c0.8,0.7,1.8,1.1,3,1.1C80.9,163.5,81.7,163.3,82.5,162.7z M76.9,148.2c-0.7,0.7-1.2,1.7-1.3,2.9c0,0.6-0.1,1.6-0.1,3
			c0,0.1,0,0.2,0.1,0.2h8.3c0.1,0,0.1-0.1,0.1-0.2c0-1.2,0-2.1-0.1-2.9c-0.1-1.2-0.6-2.2-1.3-3c-0.8-0.8-1.7-1.1-2.9-1.1
			C78.6,147.1,77.6,147.5,76.9,148.2z"/>
		<path class="st7" d="M91.3,164.7v-26.2c0-0.3,0.1-0.4,0.4-0.4h1.2c0.2,0,0.4,0.1,0.4,0.4v26.2c0,0.3-0.1,0.4-0.4,0.4h-1.2
			C91.4,165,91.3,164.9,91.3,164.7z"/>
		<path class="st7" d="M99.1,164.7v-26.2c0-0.3,0.1-0.4,0.4-0.4h1.2c0.2,0,0.4,0.1,0.4,0.4v26.2c0,0.3-0.1,0.4-0.4,0.4h-1.2
			C99.3,165,99.1,164.9,99.1,164.7z"/>
		<path class="st7" d="M115.5,162.7c0.7-0.6,1.2-1.3,1.5-2.2c0.1-0.2,0.2-0.3,0.4-0.3l1,0.2c0.1,0,0.2,0.1,0.2,0.2s0,0.2,0,0.3
			c-0.3,1.4-1,2.5-2,3.3c-1,0.8-2.3,1.2-3.8,1.2c-1.6,0-3-0.5-4-1.5c-1.1-1-1.7-2.3-1.9-3.9c-0.2-1.1-0.3-2.7-0.3-4.7
			c0-2.1,0-3.6,0.1-4.4c0.2-1.6,0.8-3,1.9-4c1.1-1,2.4-1.5,4.1-1.5c1.8,0,3.2,0.5,4.3,1.6c1.1,1.1,1.7,2.5,1.9,4.3
			c0.1,0.9,0.1,2.3,0.1,4.4c0,0.3-0.1,0.4-0.4,0.4h-10c-0.1,0-0.1,0.1-0.1,0.2c0,1.3,0,2.4,0.1,3.3c0.1,1.2,0.6,2.2,1.3,3
			c0.8,0.7,1.8,1.1,3,1.1C113.9,163.5,114.7,163.3,115.5,162.7z M109.9,148.2c-0.7,0.7-1.2,1.7-1.3,2.9c0,0.6-0.1,1.6-0.1,3
			c0,0.1,0,0.2,0.1,0.2h8.3c0.1,0,0.1-0.1,0.1-0.2c0-1.2,0-2.1-0.1-2.9c-0.1-1.2-0.6-2.2-1.3-3c-0.8-0.8-1.7-1.1-2.9-1.1
			C111.6,147.1,110.6,147.5,109.9,148.2z"/>
		<path class="st7" d="M134.8,147c1,1.1,1.4,2.7,1.4,4.6v13c0,0.3-0.1,0.4-0.4,0.4h-1.2c-0.2,0-0.4-0.1-0.4-0.4v-12.7
			c0-1.5-0.4-2.6-1.1-3.5s-1.7-1.3-2.9-1.3c-1.1,0-2.1,0.4-2.8,1.1c-0.7,0.7-1.2,1.7-1.3,3v13.4c0,0.3-0.1,0.4-0.4,0.4h-1.2
			c-0.2,0-0.4-0.1-0.4-0.4V146c0-0.3,0.1-0.4,0.4-0.4h1.2c0.2,0,0.4,0.1,0.4,0.4v1.7c0,0.1,0,0.1,0.1,0.1c0,0,0.1,0,0.1-0.1
			c0.5-0.8,1.1-1.4,1.9-1.8c0.8-0.4,1.6-0.6,2.6-0.6C132.5,145.3,133.8,145.9,134.8,147z"/>
		<path class="st7" d="M148.5,147.3H145c-0.1,0-0.1,0.1-0.1,0.2v12.3c0,1.3,0.2,2.2,0.7,2.7c0.5,0.5,1.2,0.8,2.3,0.7h0.6
			c0.2,0,0.4,0.1,0.4,0.4v1c0,0.3-0.1,0.4-0.4,0.4h-0.9c-1.5,0-2.6-0.3-3.4-1c-0.8-0.7-1.2-1.9-1.2-3.8v-12.9c0-0.1,0-0.2-0.1-0.2
			H141c-0.2,0-0.4-0.1-0.4-0.4V146c0-0.3,0.1-0.4,0.4-0.4h1.8c0.1,0,0.1-0.1,0.1-0.2v-4.4c0-0.3,0.1-0.4,0.4-0.4h1.1
			c0.2,0,0.4,0.1,0.4,0.4v4.4c0,0.1,0,0.2,0.1,0.2h3.5c0.2,0,0.4,0.1,0.4,0.4v0.9C148.9,147.1,148.8,147.3,148.5,147.3z"/>
		<path class="st7" d="M163.4,163.4c-1.3-1.3-1.9-3.1-1.9-5.3V145c0-2.2,0.6-3.9,1.9-5.3c1.3-1.3,3-2,5.1-2c1.4,0,2.6,0.3,3.7,0.9
			c1.1,0.6,1.9,1.4,2.5,2.5c0.6,1.1,0.9,2.3,0.9,3.7v1.1c0,0.3-0.1,0.4-0.4,0.4h-1.2c-0.2,0-0.4-0.1-0.4-0.4v-1.1
			c0-1.6-0.5-2.9-1.4-3.9c-0.9-1-2.2-1.5-3.7-1.5c-1.5,0-2.8,0.5-3.7,1.5c-0.9,1-1.4,2.3-1.4,3.9v13.3c0,1.6,0.5,2.9,1.4,3.9
			c0.9,1,2.2,1.5,3.7,1.5c1.5,0,2.8-0.5,3.7-1.4c0.9-1,1.4-2.2,1.4-3.8v-4.7c0-0.1,0-0.2-0.1-0.2h-4.5c-0.2,0-0.4-0.1-0.4-0.4v-1
			c0-0.3,0.1-0.4,0.4-0.4h6.2c0.2,0,0.4,0.1,0.4,0.4v6c0,2.2-0.6,4-1.9,5.3c-1.3,1.3-3,2-5.1,2C166.4,165.4,164.7,164.7,163.4,163.4
			z"/>
		<path class="st7" d="M190.7,147c1,1.2,1.5,2.7,1.5,4.7v12.9c0,0.3-0.1,0.4-0.4,0.4h-1.2c-0.2,0-0.4-0.1-0.4-0.4v-1.6
			c0-0.1,0-0.1-0.1-0.1s-0.1,0-0.1,0.1c-0.6,0.8-1.3,1.4-2.1,1.7c-0.9,0.4-1.8,0.6-2.8,0.6c-1.5,0-2.7-0.4-3.8-1.3
			c-1-0.8-1.5-2.2-1.5-4.2c0-2,0.6-3.6,1.8-4.6c1.2-1,2.8-1.6,4.9-1.6h3.5c0.1,0,0.1-0.1,0.1-0.2v-1.8c0-1.4-0.3-2.6-1-3.4
			c-0.7-0.8-1.7-1.3-3-1.3c-1,0-1.9,0.3-2.6,0.8c-0.7,0.6-1.1,1.3-1.3,2.2c0,0.2-0.2,0.3-0.4,0.3l-1.3-0.1c-0.1,0-0.2,0-0.3-0.1
			c-0.1-0.1-0.1-0.2-0.1-0.3c0.2-1.4,0.8-2.6,1.9-3.4c1.1-0.9,2.4-1.3,4-1.3C188.2,145.3,189.7,145.9,190.7,147z M188.9,162.4
			c0.9-0.8,1.4-1.8,1.4-3.2v-3.6c0-0.1,0-0.2-0.1-0.2h-3.4c-1.5,0-2.7,0.4-3.6,1.1c-0.9,0.8-1.3,1.8-1.3,3.3c0,1.3,0.3,2.2,1,2.8
			c0.7,0.6,1.6,0.9,2.7,0.9C186.8,163.5,188,163.2,188.9,162.4z"/>
		<path class="st7" d="M205.9,145.9c0.2,0.1,0.2,0.2,0.2,0.5l-0.3,1.3c-0.1,0.3-0.2,0.3-0.5,0.2c-0.4-0.2-0.8-0.3-1.2-0.3l-0.4,0
			c-1.1,0-2.1,0.6-2.8,1.6c-0.7,1-1.1,2.3-1.1,3.8v11.7c0,0.3-0.1,0.4-0.4,0.4h-1.2c-0.2,0-0.4-0.1-0.4-0.4V146
			c0-0.3,0.1-0.4,0.4-0.4h1.2c0.2,0,0.4,0.1,0.4,0.4v2.6c0,0.1,0,0.1,0.1,0.1c0,0,0.1,0,0.1-0.1c0.4-1,1-1.7,1.7-2.3
			c0.7-0.6,1.5-0.8,2.5-0.8C204.8,145.4,205.4,145.6,205.9,145.9z"/>
		<path class="st7" d="M219.8,147c1,1.2,1.5,2.7,1.5,4.7v12.9c0,0.3-0.1,0.4-0.4,0.4h-1.2c-0.2,0-0.4-0.1-0.4-0.4v-1.6
			c0-0.1,0-0.1-0.1-0.1s-0.1,0-0.1,0.1c-0.6,0.8-1.3,1.4-2.1,1.7c-0.9,0.4-1.8,0.6-2.8,0.6c-1.5,0-2.7-0.4-3.8-1.3
			c-1-0.8-1.5-2.2-1.5-4.2c0-2,0.6-3.6,1.8-4.6c1.2-1,2.8-1.6,4.9-1.6h3.5c0.1,0,0.1-0.1,0.1-0.2v-1.8c0-1.4-0.3-2.6-1-3.4
			c-0.7-0.8-1.7-1.3-3-1.3c-1,0-1.9,0.3-2.6,0.8c-0.7,0.6-1.1,1.3-1.3,2.2c0,0.2-0.2,0.3-0.4,0.3l-1.3-0.1c-0.1,0-0.2,0-0.3-0.1
			c-0.1-0.1-0.1-0.2-0.1-0.3c0.2-1.4,0.8-2.6,1.9-3.4c1.1-0.9,2.4-1.3,4-1.3C217.3,145.3,218.7,145.9,219.8,147z M218,162.4
			c0.9-0.8,1.4-1.8,1.4-3.2v-3.6c0-0.1,0-0.2-0.1-0.2h-3.4c-1.5,0-2.7,0.4-3.6,1.1c-0.9,0.8-1.3,1.8-1.3,3.3c0,1.3,0.3,2.2,1,2.8
			c0.7,0.6,1.6,0.9,2.7,0.9C215.9,163.5,217,163.2,218,162.4z"/>
		<path class="st7" d="M237,145.6h1.2c0.2,0,0.4,0.1,0.4,0.4v18.7c0,5.5-2.7,8.2-8,8.1c-0.1,0-1.7,0-1.8,0c-0.2,0-0.4-0.1-0.4-0.4
			l0-1.1c0-0.3,0.1-0.4,0.4-0.4c0.1,0,1.8,0,1.9,0c2,0,3.5-0.5,4.4-1.5c1-1,1.5-2.6,1.5-4.8v-1.7c0-0.1,0-0.1-0.1-0.1
			c0,0-0.1,0-0.1,0.1c-0.4,0.7-1,1.3-1.8,1.7c-0.7,0.4-1.6,0.6-2.5,0.6c-1.5,0-2.8-0.5-3.8-1.5c-1-1-1.6-2.3-1.8-4
			c-0.1-1-0.2-2.5-0.2-4.5c0-2.1,0.1-3.6,0.2-4.6c0.2-1.6,0.8-2.9,1.8-3.9c1-1,2.3-1.5,3.8-1.5c1,0,1.8,0.2,2.5,0.6
			c0.7,0.4,1.3,1,1.8,1.7c0,0.1,0.1,0.1,0.1,0.1c0,0,0.1-0.1,0.1-0.1V146C236.6,145.7,236.8,145.6,237,145.6z M236.6,155.3
			c0-1.3,0-2.7-0.1-4.1c-0.1-1.2-0.5-2.2-1.2-2.9c-0.7-0.8-1.7-1.2-2.8-1.2c-1.1,0-2.1,0.4-2.8,1.2c-0.7,0.8-1.2,1.7-1.4,2.9
			c-0.1,1.4-0.1,2.8-0.1,4.1c0,1.4,0,2.8,0.1,4.1c0.1,1.2,0.6,2.2,1.3,2.9c0.8,0.8,1.7,1.1,2.9,1.1c1.1,0,2-0.4,2.8-1.2
			c0.7-0.8,1.1-1.7,1.2-2.9C236.6,158,236.6,156.6,236.6,155.3z"/>
		<path class="st7" d="M252.7,162.7c0.7-0.6,1.2-1.3,1.5-2.2c0.1-0.2,0.2-0.3,0.4-0.3l1,0.2c0.1,0,0.2,0.1,0.2,0.2
			c0,0.1,0,0.2,0,0.3c-0.3,1.4-1,2.5-2,3.3c-1,0.8-2.3,1.2-3.8,1.2c-1.6,0-3-0.5-4-1.5c-1.1-1-1.7-2.3-1.9-3.9
			c-0.2-1.1-0.3-2.7-0.3-4.7c0-2.1,0-3.6,0.1-4.4c0.2-1.6,0.8-3,1.9-4c1.1-1,2.4-1.5,4.1-1.5c1.8,0,3.2,0.5,4.3,1.6
			c1.1,1.1,1.7,2.5,1.9,4.3c0.1,0.9,0.1,2.3,0.1,4.4c0,0.3-0.1,0.4-0.4,0.4h-10c-0.1,0-0.1,0.1-0.1,0.2c0,1.3,0,2.4,0.1,3.3
			c0.1,1.2,0.6,2.2,1.3,3c0.8,0.7,1.8,1.1,3,1.1C251.1,163.5,252,163.3,252.7,162.7z M247.1,148.2c-0.7,0.7-1.2,1.7-1.3,2.9
			c0,0.6-0.1,1.6-0.1,3c0,0.1,0,0.2,0.1,0.2h8.3c0.1,0,0.1-0.1,0.1-0.2c0-1.2,0-2.1-0.1-2.9c-0.1-1.2-0.6-2.2-1.3-3
			c-0.8-0.8-1.7-1.1-2.9-1.1C248.8,147.1,247.9,147.5,247.1,148.2z"/>
		<path class="st7" d="M270,164.7v-26.2c0-0.3,0.1-0.4,0.4-0.4h6.8c2,0,3.6,0.6,4.8,1.9c1.2,1.3,1.8,3,1.8,5.2v12.7
			c0,2.2-0.6,4-1.8,5.2s-2.8,1.9-4.8,1.9h-6.8C270.1,165,270,164.9,270,164.7z M272,163.2h5.1c1.4,0,2.5-0.5,3.4-1.5
			c0.8-1,1.3-2.3,1.3-4v-12.4c0-1.7-0.4-3.1-1.2-4.1c-0.8-1-2-1.5-3.4-1.5H272c-0.1,0-0.1,0.1-0.1,0.2v23.1
			C271.9,163.2,271.9,163.2,272,163.2z"/>
		<path class="st7" d="M291.1,163.9c-1.1-1-1.7-2.3-2-4c-0.1-1.3-0.2-2.8-0.2-4.5c0-1.7,0.1-3.3,0.2-4.5c0.2-1.6,0.8-3,1.9-4
			c1.1-1,2.5-1.5,4.1-1.5c1.6,0,3,0.5,4.1,1.5c1.1,1,1.7,2.3,1.9,4c0.1,1.1,0.2,2.6,0.2,4.6c0,2-0.1,3.5-0.2,4.5
			c-0.2,1.7-0.8,3-1.9,4c-1.1,1-2.5,1.5-4.1,1.5C293.5,165.4,292.2,164.9,291.1,163.9z M298,162.4c0.8-0.7,1.2-1.7,1.3-3
			c0.1-0.7,0.1-2.1,0.1-4.1c0-2,0-3.4-0.1-4.1c-0.1-1.2-0.6-2.2-1.3-3c-0.8-0.7-1.7-1.1-2.9-1.1s-2.1,0.4-2.9,1.1
			c-0.8,0.7-1.2,1.7-1.3,3c-0.1,0.7-0.1,2.1-0.1,4.1c0,2,0,3.4,0.1,4.1c0.1,1.2,0.6,2.2,1.3,3c0.8,0.7,1.7,1.1,2.9,1.1
			S297.3,163.2,298,162.4z"/>
		<path class="st7" d="M308.7,163.9c-1.1-1-1.7-2.3-2-4c-0.1-1.3-0.2-2.8-0.2-4.5c0-1.7,0.1-3.3,0.2-4.5c0.2-1.6,0.8-3,1.9-4
			c1.1-1,2.5-1.5,4.1-1.5c1.6,0,3,0.5,4.1,1.5c1.1,1,1.7,2.3,1.9,4c0.1,1.1,0.2,2.6,0.2,4.6c0,2-0.1,3.5-0.2,4.5
			c-0.2,1.7-0.8,3-1.9,4c-1.1,1-2.5,1.5-4.1,1.5C311.1,165.4,309.8,164.9,308.7,163.9z M315.6,162.4c0.8-0.7,1.2-1.7,1.3-3
			c0.1-0.7,0.1-2.1,0.1-4.1c0-2,0-3.4-0.1-4.1c-0.1-1.2-0.6-2.2-1.3-3c-0.8-0.7-1.7-1.1-2.9-1.1s-2.1,0.4-2.9,1.1
			c-0.8,0.7-1.2,1.7-1.3,3c-0.1,0.7-0.1,2.1-0.1,4.1c0,2,0,3.4,0.1,4.1c0.1,1.2,0.6,2.2,1.3,3c0.8,0.7,1.7,1.1,2.9,1.1
			S314.9,163.2,315.6,162.4z"/>
		<path class="st7" d="M332.7,145.9c0.2,0.1,0.2,0.2,0.2,0.5l-0.3,1.3c-0.1,0.3-0.2,0.3-0.5,0.2c-0.4-0.2-0.8-0.3-1.2-0.3l-0.4,0
			c-1.1,0-2.1,0.6-2.8,1.6c-0.7,1-1.1,2.3-1.1,3.8v11.7c0,0.3-0.1,0.4-0.4,0.4H325c-0.2,0-0.4-0.1-0.4-0.4V146
			c0-0.3,0.1-0.4,0.4-0.4h1.2c0.2,0,0.4,0.1,0.4,0.4v2.6c0,0.1,0,0.1,0.1,0.1c0,0,0.1,0,0.1-0.1c0.4-1,1-1.7,1.7-2.3
			c0.7-0.6,1.5-0.8,2.5-0.8C331.6,145.4,332.2,145.6,332.7,145.9z"/>
	</g>
</g>
<rect x="1230.9" y="1338.1" class="st13" width="285.7" height="31.4"/>
</svg>
